<svg width="141" height="43" viewBox="0 0 141 43" fill="none" xmlns="http://www.w3.org/2000/svg">
<g opacity="0.9">
<g clip-path="url(#clip0_162_68472)">
<path d="M87.4729 33.2296C79.2791 39.2696 67.4027 42.491 57.1767 42.491C42.8398 42.491 29.9309 37.1884 20.1662 28.3695C19.3983 27.6765 20.0866 26.7307 21.0067 27.2715C31.544 33.4028 44.5746 37.0924 58.0359 37.0924C67.1124 37.0924 77.0995 35.2149 86.2813 31.3169C87.6696 30.727 88.8284 32.2253 87.4729 33.2319" fill="#192509"/>
<path d="M90.8794 29.3316C89.8352 27.9925 83.9567 28.6995 81.3159 29.0133C80.5129 29.1116 80.3889 28.4116 81.1123 27.9083C85.7945 24.612 93.4803 25.5648 94.3746 26.6675C95.2713 27.7795 94.1405 35.4817 89.7416 39.1573C89.0673 39.7215 88.4212 39.4218 88.7232 38.6726C89.7111 36.2051 91.9282 30.6754 90.877 29.3316" fill="#192509"/>
<path d="M81.5009 4.64012V1.43514C81.5009 0.950536 81.8684 0.625122 82.3109 0.625122H96.6548C97.116 0.625122 97.4836 0.957559 97.4836 1.43514V4.17892C97.4766 4.64012 97.0903 5.24178 96.4043 6.19227L88.9713 16.8045C91.7338 16.7366 94.6485 17.1486 97.1535 18.5603C97.7177 18.8787 97.8722 19.3469 97.9143 19.8058V23.2238C97.9143 23.6897 97.3993 24.2375 96.8585 23.9542C92.4455 21.6412 86.5834 21.3884 81.7045 23.9776C81.2082 24.2469 80.6862 23.7084 80.6862 23.2402V19.9931C80.6862 19.471 80.6932 18.5814 81.2129 17.7901L89.8235 5.44077H82.3296C81.8684 5.44077 81.5009 5.11536 81.5009 4.63777" fill="#192509"/>
<path d="M29.1772 24.6308H24.8134C24.3967 24.6004 24.0642 24.2867 24.0338 23.8887V1.49133C24.0338 1.04418 24.4084 0.688335 24.8743 0.688335H28.9431C29.3668 0.707064 29.704 1.03248 29.7344 1.43749V4.36621H29.814C30.8769 1.53581 32.8715 0.217773 35.5591 0.217773C38.2467 0.217773 39.9955 1.53816 41.2245 4.36621C42.2804 1.53581 44.68 0.217773 47.2505 0.217773C49.0789 0.217773 51.0806 0.971609 52.3026 2.66657C53.6839 4.55116 53.4006 7.28791 53.4006 9.68754L53.3936 23.8231C53.3936 24.2703 53.019 24.6331 52.5531 24.6331H48.1963C47.7609 24.6027 47.4097 24.2515 47.4097 23.8231V11.949C47.4097 11.0032 47.4964 8.64809 47.288 7.75145C46.9626 6.24846 45.9863 5.82472 44.7221 5.82472C43.6663 5.82472 42.5613 6.52939 42.1142 7.66014C41.667 8.78855 41.7091 10.6802 41.7091 11.9514V23.8208C41.7091 24.2679 41.3346 24.6308 40.8687 24.6308H36.5119C36.0694 24.6004 35.7253 24.2492 35.7253 23.8208L35.7183 11.9514C35.7183 9.45343 36.1303 5.77789 33.0307 5.77789C29.9311 5.77789 30.0177 9.36212 30.0177 11.9514V23.8208C30.0177 24.2679 29.6431 24.6308 29.1772 24.6308" fill="#192509"/>
<path d="M109.833 0.215332C116.308 0.215332 119.813 5.77545 119.813 12.8456C119.813 19.9157 115.941 25.0966 109.833 25.0966C103.725 25.0966 100.012 19.5365 100.012 12.6068C100.012 5.67713 103.517 0.215332 109.833 0.215332ZM109.87 4.78751C106.654 4.78751 106.452 9.17005 106.452 11.9021C106.452 14.6342 106.41 20.4823 109.835 20.4823C113.26 20.4823 113.377 15.7696 113.377 12.8971C113.377 11.0078 113.298 8.74865 112.726 6.95537C112.235 5.39619 111.259 4.78985 109.873 4.78985" fill="#192509"/>
<path d="M128.208 24.6307H123.863C123.428 24.6003 123.076 24.2491 123.076 23.8207L123.069 1.41866C123.107 1.00663 123.467 0.688235 123.91 0.688235H127.955C128.337 0.706964 128.648 0.964485 128.735 1.31331V4.73834H128.815C130.037 1.67618 131.748 0.215332 134.761 0.215332C136.718 0.215332 138.628 0.920004 139.855 2.85376C140.998 4.64704 140.998 7.66004 140.998 9.82556V23.9237C140.948 24.317 140.586 24.6284 140.157 24.6284H135.782C135.384 24.5979 135.051 24.303 135.009 23.9237V11.7593C135.009 9.31052 135.292 5.72629 132.277 5.72629C131.214 5.72629 130.24 6.43799 129.753 7.51958C129.14 8.88912 129.06 10.2516 129.06 11.7617V23.823C129.053 24.2702 128.674 24.633 128.208 24.633" fill="#192509"/>
<path d="M70.0669 13.9319V12.9861C66.9111 12.9861 63.5797 13.6603 63.5797 17.3804C63.5797 19.2649 64.556 20.5408 66.2322 20.5408C67.4589 20.5408 68.5592 19.787 69.2522 18.5579C70.1114 17.0479 70.0693 15.6292 70.0693 13.9296M74.4705 24.5652C74.1826 24.8227 73.7659 24.8415 73.4404 24.6706C71.9913 23.4672 71.7338 22.91 70.9355 21.7606C68.5429 24.2023 66.8479 24.9328 63.7412 24.9328C60.0704 24.9328 57.2119 22.6689 57.2119 18.1318C57.2119 14.5898 59.134 12.1784 61.8637 11.0008C64.2329 9.95671 67.5409 9.77411 70.0693 9.48381V8.9196C70.0693 7.8825 70.1488 6.65576 69.5425 5.75912C69.0087 4.95612 67.9904 4.62368 67.0937 4.62368C65.4315 4.62368 63.9449 5.47584 63.5821 7.24337C63.5095 7.63668 63.2192 8.02296 62.8282 8.04169L58.5932 7.58752C58.2373 7.50792 57.844 7.21996 57.9423 6.67215C58.9162 1.54747 63.5493 0 67.6977 0C69.8211 0 72.5953 0.564206 74.2715 2.17254C76.3949 4.15546 76.1936 6.80091 76.1936 9.67812V16.479C76.1936 18.5228 77.0411 19.4195 77.8394 20.5245C78.1226 20.9178 78.1835 21.3907 77.8277 21.6833C76.9381 22.4254 75.3531 23.8067 74.4822 24.5792L74.4705 24.5675" fill="#192509"/>
<path d="M12.8578 13.9319V12.9861C9.702 12.9861 6.37061 13.6603 6.37061 17.3804C6.37061 19.2649 7.34685 20.5408 9.02308 20.5408C10.2498 20.5408 11.3501 19.787 12.0431 18.5579C12.9023 17.0479 12.8601 15.6292 12.8601 13.9296M17.2614 24.5652C16.9735 24.8227 16.5568 24.8415 16.2313 24.6706C14.7822 23.4672 14.5247 22.91 13.7264 21.7606C11.3337 24.2023 9.63879 24.9328 6.53215 24.9328C2.86129 24.9328 0.00280762 22.6689 0.00280762 18.1318C0.00280762 14.5898 1.92485 12.1784 4.65458 11.0008C7.02378 9.95671 10.3318 9.77411 12.8601 9.48381V8.9196C12.8601 7.8825 12.9397 6.65576 12.3334 5.75912C11.7996 4.95612 10.7812 4.62368 9.88461 4.62368C8.22242 4.62368 6.73582 5.47584 6.37295 7.24337C6.30038 7.63668 6.01008 8.02296 5.61911 8.04169L1.38406 7.58752C1.02821 7.50792 0.634906 7.21996 0.733232 6.67215C1.70713 1.54747 6.34018 0 10.4886 0C12.612 0 15.3862 0.564206 17.0624 2.17254C19.1858 4.15546 18.9845 6.80091 18.9845 9.67812V16.479C18.9845 18.5228 19.832 19.4195 20.6303 20.5245C20.9135 20.9178 20.9744 21.3907 20.6186 21.6833C19.7289 22.4254 18.144 23.8067 17.2731 24.5792L17.2614 24.5675" fill="#192509"/>
</g>
</g>
<defs>
<clipPath id="clip0_162_68472">
<rect width="141" height="42.491" fill="192509"/>
</clipPath>
</defs>
</svg>
