<svg width="84" height="24" viewBox="0 0 84 24" fill="none" xmlns="http://www.w3.org/2000/svg">
<path d="M2.53386 11.6456C2.53386 8.99934 2.50529 9.32522 2.47529 8.09413C2.41673 6.30935 2.18391 4.27714 1.86397 3.72345C1.57259 3.23162 1.04839 3.1079 0.728448 3.1079C0.465635 3.1079 0.232818 3.13808 0.117123 3.16976L0 2.80013C0.989832 2.3083 1.9511 1.84664 2.91236 1.29295C3.6708 0.769432 4.77776 0 5.30196 0L5.59334 0.18406C5.71046 0.799606 5.76759 2.12273 5.76759 3.50771C5.76759 4.76897 5.68046 7.09085 5.68046 10.5382C6.23465 9.98452 6.72886 9.58472 7.34161 9.18491C7.95293 8.78511 8.82707 8.38531 9.75977 8.38531C10.8953 8.38531 11.9737 8.90882 12.7893 9.70843C14.2747 11.1553 14.7989 13.1241 14.7989 15.2167C14.7989 17.9866 13.5463 20.1395 12.0308 21.3404C10.6039 22.4478 9.37983 22.7873 8.21432 22.7873C7.0488 22.7873 5.85472 22.1416 5.0977 21.2801C4.28213 21.6497 3.23374 22.1114 2.38817 22.6952L2.06822 22.5414C2.38817 21.1564 2.53386 18.9416 2.53386 15.9257V11.6456ZM5.73903 16.9381C5.82615 19.5541 6.0304 20.5076 6.46747 21.1232C6.93311 21.8006 7.70583 21.9454 8.43428 21.9454C9.36698 21.5758 9.99259 21.0613 10.3711 20.2919C10.7496 19.5526 11.1581 17.8916 11.1581 15.891C11.1581 13.8905 10.6625 12.2913 9.75977 11.4298C9.03132 10.7223 8.33287 10.671 7.57443 10.5774C6.87597 10.6393 6.16181 11.2503 5.71046 11.9745V14.0761C5.71046 15.0296 5.71046 15.9831 5.73903 16.9381Z" fill="#F2E4CE"/>
<path d="M16.3715 21.1534C16.8086 20.4156 17.0714 19.1528 17.0714 16.6001C17.0714 13.7698 16.8971 12.6006 16.6929 11.985C16.4601 11.2473 15.993 10.9395 15.5274 10.9395C15.2645 10.9395 15.0032 10.9697 14.886 11.0014L14.7989 10.6634C15.4402 10.3255 16.5472 9.80197 17.2171 9.37048C18.1498 8.72476 19.4895 7.92365 19.8966 7.92365C19.9552 7.92365 20.0709 7.95382 20.1009 8.04736C20.218 8.47885 20.218 9.77028 20.218 10.7555V12.4784C20.6551 11.463 21.4121 10.1701 22.1691 9.21659C22.7518 8.47884 23.1889 8.20125 23.7417 8.20125C24.8201 8.20125 25.5771 9.83214 25.5771 11.0934C25.5771 11.8327 25.1114 12.6474 24.4416 12.6474C23.5389 12.6474 22.7033 12.145 21.742 12.145C21.5963 12.145 21.3707 12.2883 21.1764 12.4844C20.9122 12.8571 20.218 13.6325 20.218 15.2317V16.0464C20.218 17.4616 20.2466 19.3384 20.6836 20.4775C20.975 21.2152 21.762 21.9846 23.1889 22.1702L23.1603 22.5398C21.9663 22.5398 19.8395 22.4478 18.5868 22.4478C17.3342 22.4478 16.1687 22.5097 14.946 22.5398L14.9175 22.2019C15.4131 22.0782 16.083 21.6784 16.3744 21.1564L16.3715 21.1534Z" fill="#F2E4CE"/>
<path d="M33.6457 20.9376C35.1612 20.9376 36.3552 20.0762 37.4322 18.7832L37.7522 19.0291C36.8195 20.2904 34.9555 22.8144 32.1588 22.8144C30.9062 22.8144 29.6821 22.5067 28.6923 21.8609C26.8569 20.6615 25.8085 18.569 25.8085 15.4912C25.8085 11.8296 28.3423 8.35212 32.0131 8.35212C35.1597 8.35212 36.8494 11.1824 37.3437 13.7985C37.3722 13.9222 37.4022 14.0444 37.4022 14.1364C37.4022 14.3205 37.3151 14.414 37.2565 14.4744L29.4493 14.6584V15.3042C29.4493 18.9959 31.2547 20.9346 33.6443 20.9346L33.6457 20.9376ZM29.4793 13.5843C30.6734 13.5843 32.9173 13.4922 33.9357 13.3383C33.9357 11.276 33.1486 9.1306 31.7217 9.1306C30.382 9.68429 29.4793 11.2775 29.4793 13.5858V13.5843Z" fill="#F2E4CE"/>
<path d="M65.9674 20.9376C67.4828 20.9376 68.6769 20.0762 69.7539 18.7832L70.0738 19.0291C69.1411 20.2904 67.2771 22.8144 64.4805 22.8144C63.2278 22.8144 62.0038 22.5067 61.0139 21.8609C59.1785 20.6615 58.1301 18.569 58.1301 15.4912C58.1301 11.8296 60.664 8.35212 64.3348 8.35212C67.4814 8.35212 69.1711 11.1824 69.6653 13.7985C69.6939 13.9222 69.7239 14.0444 69.7239 14.1364C69.7239 14.3205 69.6367 14.414 69.5782 14.4744L61.7709 14.6584V15.3042C61.7709 18.9959 63.5763 20.9346 65.9659 20.9346L65.9674 20.9376ZM61.8009 13.5843C62.995 13.5843 65.2389 13.4922 66.2573 13.3383C66.2573 11.276 65.4703 9.1306 64.0434 9.1306C62.7036 9.68429 61.8009 11.2775 61.8009 13.5858V13.5843Z" fill="#F2E4CE"/>
<path d="M41.1773 16.9999C40.216 14.5694 39.459 12.7228 38.7891 11.4615C38.4977 10.8762 38.0021 10.2003 37.595 9.80046C37.1294 9.37048 36.8666 9.18491 36.4881 9.03103L36.5466 8.72325C37.188 8.75343 38.6149 8.78511 39.8675 8.78511C41.2073 8.78511 43.0141 8.69308 43.7426 8.6614V8.99934C43.3641 9.15323 42.9556 9.33729 42.6642 9.67675C42.3728 9.98452 42.2571 10.4145 42.2571 10.9697C42.2571 11.3997 42.3742 11.9232 42.577 12.5086C43.0141 13.8015 43.5669 15.2468 44.0625 16.5398C44.4996 17.6788 44.7495 18.05 44.9538 18.6655C46.4393 15.4354 47.1791 13.9871 47.1791 12.2626C46.8592 11.2473 46.5378 10.4477 46.1893 9.92417C45.8979 9.4942 45.5194 9.15474 45.1695 9.00085L45.198 8.66291C46.0422 8.69308 47.2948 8.78662 48.2561 8.78662C49.3045 8.78662 50.4114 8.72476 51.4598 8.69459L51.4884 9.03254C51.1099 9.15625 50.7599 9.31014 50.4986 9.61791C50.2357 9.89551 49.9744 10.3873 49.9744 10.9712C49.9744 11.4012 50.0915 12.0167 50.2943 12.5719C50.7014 13.7713 51.2556 15.28 51.7512 16.5715C52.1883 17.7105 52.3797 18.0198 52.5839 18.6972C54.0694 15.3736 54.8678 13.711 54.8678 11.7105C54.8678 11.0331 54.6936 10.3572 54.2851 9.86382C53.9937 9.4942 53.498 9.18642 52.9453 9.00236L52.9739 8.66442C53.9065 8.69459 55.3049 8.78813 56.2661 8.78813C57.3145 8.78813 58.3344 8.72627 59.3828 8.6961L59.4113 9.03405C59.0028 9.18793 58.6543 9.43385 58.013 10.1731C57.1389 11.1885 56.2062 13.097 55.3335 15.0658L53.3524 19.435C52.8867 20.5122 52.1283 22.2049 51.5455 23.0045L51.1956 22.9744C50.4671 20.7898 49.5644 18.5735 48.9231 16.9124C48.516 15.8352 48.1075 14.7897 47.7876 13.8045C47.5548 14.7278 47.0306 16.2667 46.4764 17.5581L45.6608 19.435C45.1952 20.5122 44.4367 22.1431 43.8554 23.0045L43.5055 22.9744C42.7484 20.7898 41.8443 18.667 41.1744 17.0045L41.1773 16.9999Z" fill="#F2E4CE"/>
<path d="M71.5036 20.9995C71.8535 20.1682 71.9406 19.3067 71.9992 18.661C72.0577 17.9836 72.0863 16.9381 72.0863 15.8307C72.0863 15.8307 72.0578 10.7856 72.0278 9.55454C71.9692 6.84644 71.9106 4.98623 71.5321 4.03122C71.2993 3.44585 70.7451 3.1079 70.1924 3.1079C70.0181 3.1079 69.7853 3.13808 69.6682 3.16976L69.551 2.80013C70.2509 2.4305 71.6778 1.81496 72.6391 1.16924C73.2218 0.739259 74.503 0 74.8816 0L75.1444 0.18406C75.2615 0.861463 75.3186 1.72293 75.3186 2.52253C75.3186 4.55323 75.2601 9.82912 75.2601 14.9376C75.2601 17.5536 75.3772 19.2766 75.61 20.138C75.8428 20.9995 76.367 21.9228 77.504 22.1989L77.164 22.5157C76.4656 22.5157 74.7359 22.4448 73.5132 22.4448C72.1734 22.4448 70.308 22.5368 69.9881 22.5368L69.9595 22.1989C70.6294 21.9831 71.1836 21.7372 71.5036 20.9995Z" fill="#F2E4CE"/>
<path d="M77.9996 20.9995C78.3495 20.1682 78.4367 19.3067 78.4952 18.661C78.5538 17.9836 78.5824 16.9381 78.5824 15.8307C78.5824 15.8307 78.5538 10.7856 78.5238 9.55454C78.4652 6.84644 78.4067 4.98623 78.0282 4.03122C77.7954 3.44585 77.2412 3.1079 76.6884 3.1079C76.5141 3.1079 76.2799 3.13808 76.1642 3.16976L76.0471 2.80013C76.7455 2.4305 78.1739 1.81496 79.1351 1.16924C79.7179 0.739259 80.9991 0 81.3776 0L81.6404 0.18406C81.7575 0.861463 81.8147 1.72293 81.8147 2.52253C81.8147 4.55323 81.7561 9.82912 81.7561 14.9376C81.7561 17.5536 81.8732 19.2766 82.106 20.138C82.3389 20.9995 82.8631 21.9228 84 22.1989L83.9714 22.5368C83.2716 22.5368 81.2333 22.4448 80.0093 22.4448C78.6695 22.4448 77.4854 22.5157 77.1655 22.5157L76.4556 22.1989C77.1255 21.9831 77.6797 21.7372 77.9996 20.9995Z" fill="#F2E4CE"/>
</svg>
