<svg width="150" height="36" viewBox="0 0 150 36" fill="none" xmlns="http://www.w3.org/2000/svg">
<path opacity="0.9" d="M22.8364 3.06H13.5264V27H10.1064V3.06H0.796391V0.0199986H22.8364V3.06ZM30.7377 27.38C29.2431 27.38 27.8751 27.114 26.6337 26.582C25.4177 26.0247 24.3537 25.2773 23.4417 24.34C22.5551 23.3773 21.8584 22.2753 21.3517 21.034C20.8704 19.7927 20.6297 18.4753 20.6297 17.082C20.6297 15.2073 21.0604 13.4973 21.9217 11.952C22.7831 10.4067 23.9737 9.16533 25.4937 8.228C27.0391 7.29067 28.7997 6.822 30.7757 6.822C32.7771 6.822 34.5124 7.30333 35.9817 8.266C37.4764 9.20333 38.6291 10.4447 39.4397 11.99C40.2757 13.51 40.6937 15.1567 40.6937 16.93C40.6937 17.1833 40.6811 17.4367 40.6557 17.69C40.6557 17.918 40.6431 18.0953 40.6177 18.222H24.1637C24.2651 19.514 24.6197 20.6667 25.2277 21.68C25.8611 22.668 26.6717 23.4533 27.6597 24.036C28.6477 24.5933 29.7117 24.872 30.8517 24.872C32.0677 24.872 33.2077 24.568 34.2717 23.96C35.3611 23.352 36.1084 22.554 36.5137 21.566L39.4017 22.364C38.9711 23.3267 38.3251 24.188 37.4637 24.948C36.6277 25.708 35.6271 26.3033 34.4617 26.734C33.3217 27.1647 32.0804 27.38 30.7377 27.38ZM24.0497 15.904H37.5777C37.4764 14.612 37.1091 13.472 36.4757 12.484C35.8424 11.496 35.0317 10.7233 34.0437 10.166C33.0557 9.60867 31.9664 9.33 30.7757 9.33C29.6104 9.33 28.5337 9.60867 27.5457 10.166C26.5577 10.7233 25.7471 11.496 25.1137 12.484C24.5057 13.472 24.1511 14.612 24.0497 15.904ZM42.8529 21.262C42.8529 19.9953 43.2076 18.906 43.9169 17.994C44.6516 17.0567 45.6522 16.3347 46.9189 15.828C48.1856 15.3213 49.6549 15.068 51.3269 15.068C52.2136 15.068 53.1509 15.144 54.1389 15.296C55.1269 15.4227 56.0009 15.6253 56.7609 15.904V14.46C56.7609 12.94 56.3049 11.7493 55.3929 10.888C54.4809 10.0013 53.1889 9.558 51.5169 9.558C50.4276 9.558 49.3762 9.76067 48.3629 10.166C47.3749 10.546 46.3236 11.1033 45.2089 11.838L43.9929 9.482C45.2849 8.59533 46.5769 7.93667 47.8689 7.506C49.1609 7.05 50.5036 6.822 51.8969 6.822C54.4302 6.822 56.4316 7.53133 57.9009 8.95C59.3702 10.3433 60.1049 12.294 60.1049 14.802V23.2C60.1049 23.6053 60.1809 23.9093 60.3329 24.112C60.5102 24.2893 60.7889 24.3907 61.1689 24.416V27C60.8396 27.0507 60.5482 27.0887 60.2949 27.114C60.0669 27.1393 59.8769 27.152 59.7249 27.152C58.9396 27.152 58.3442 26.9367 57.9389 26.506C57.5589 26.0753 57.3436 25.6193 57.2929 25.138L57.2169 23.884C56.3556 24.9987 55.2282 25.86 53.8349 26.468C52.4416 27.076 51.0609 27.38 49.6929 27.38C48.3756 27.38 47.1976 27.114 46.1589 26.582C45.1202 26.0247 44.3096 25.29 43.7269 24.378C43.1442 23.4407 42.8529 22.402 42.8529 21.262ZM55.7729 22.668C56.0769 22.3133 56.3176 21.9587 56.4949 21.604C56.6722 21.224 56.7609 20.9073 56.7609 20.654V18.184C55.9756 17.88 55.1522 17.652 54.2909 17.5C53.4296 17.3227 52.5809 17.234 51.7449 17.234C50.0476 17.234 48.6669 17.576 47.6029 18.26C46.5642 18.9187 46.0449 19.8307 46.0449 20.996C46.0449 21.6293 46.2096 22.25 46.5389 22.858C46.8936 23.4407 47.4002 23.922 48.0589 24.302C48.7429 24.682 49.5789 24.872 50.5669 24.872C51.6056 24.872 52.5936 24.6693 53.5309 24.264C54.4682 23.8333 55.2156 23.3013 55.7729 22.668ZM84.2999 22.402V27H65.5659V0.0199986H83.9579V4.618H70.8099V11.116H82.1719V15.372H70.8099V22.402H84.2999ZM106.289 27H101.197V15.828C101.197 14.232 100.918 13.0667 100.361 12.332C99.8035 11.5973 99.0308 11.23 98.0428 11.23C97.3588 11.23 96.6622 11.4073 95.9528 11.762C95.2688 12.1167 94.6482 12.6107 94.0908 13.244C93.5335 13.852 93.1282 14.5613 92.8748 15.372V27H87.7828V7.088H92.3808V10.774C92.8875 9.91267 93.5335 9.19067 94.3188 8.608C95.1042 8 96.0035 7.544 97.0168 7.24C98.0555 6.91066 99.1448 6.746 100.285 6.746C101.526 6.746 102.54 6.974 103.325 7.43C104.136 7.86067 104.744 8.456 105.149 9.216C105.58 9.95067 105.871 10.7867 106.023 11.724C106.2 12.6613 106.289 13.6113 106.289 14.574V27ZM115.74 27L108.406 7.088H113.688L118.704 22.364L123.758 7.088H128.584L121.288 27H115.74ZM131.693 30.876C132.149 30.9773 132.567 31.066 132.947 31.142C133.352 31.218 133.694 31.256 133.973 31.256C134.454 31.256 134.847 31.1293 135.151 30.876C135.48 30.648 135.797 30.2173 136.101 29.584C136.405 28.976 136.722 28.1147 137.051 27L129.185 7.088H134.467L139.825 21.794L144.537 7.088H149.401L141.041 30.952C140.737 31.8387 140.268 32.6367 139.635 33.346C139.027 34.0807 138.254 34.6507 137.317 35.056C136.405 35.4867 135.379 35.702 134.239 35.702C133.834 35.702 133.428 35.664 133.023 35.588C132.618 35.5373 132.174 35.436 131.693 35.284V30.876Z" fill="#F2E4CE"/>
</svg>
