<svg width="274" height="25" viewBox="0 0 274 25" fill="none" xmlns="http://www.w3.org/2000/svg">
<path opacity="0.9" d="M16.5374 7.812L21.8574 24.646H22.3514L28.5074 5.304C29.3054 2.758 29.8754 1.998 33.0294 1.998V1.2H24.4794V1.998C27.2154 1.998 27.7854 2.796 27.1394 4.886L22.9974 17.958L17.6774 1.2H17.1454L11.8254 17.996L7.64537 4.886C6.99937 2.758 7.45537 1.998 10.6474 1.998V1.2H0.00737014V1.998C3.16137 1.998 3.65537 2.492 4.52937 5.304L10.6854 24.646H11.1794L16.5374 7.812ZM41.5253 22.594H41.0693C38.5233 22.594 38.0673 21.986 38.0673 18.186V15.982H38.2953C42.0953 15.982 42.3993 16.476 42.3993 18.984H43.1593V11.574H42.3993C42.3993 14.12 42.0953 14.576 38.2953 14.576H38.0673V8.914H40.6133C44.0713 8.914 44.5653 9.598 44.9833 11.346L45.1733 12.106H45.9713L45.6673 7.546H40.7653H32.3673V8.306C34.9133 8.306 35.3693 8.914 35.3693 12.714V18.794C35.3693 22.594 34.9133 23.24 32.3673 23.24V24H46.5793L46.8833 19.402H46.1233L45.9333 20.162C45.4773 21.948 44.9833 22.594 41.5253 22.594ZM53.4045 12.714V18.794C53.4045 22.594 52.9485 23.24 50.4025 23.24V24H65.5645L65.8305 19.402H65.0325L64.8425 20.162C64.3865 21.948 63.9305 22.594 60.4345 22.594H59.1045C56.5585 22.594 56.1025 21.986 56.1025 18.186V12.714C56.1025 8.914 56.5585 8.306 59.1045 8.306V7.546H50.4025V8.306C52.9485 8.306 53.4045 8.914 53.4045 12.714ZM70.2522 12.714V18.794C70.2522 22.594 69.7962 23.24 67.2502 23.24V24H82.4122L82.6782 19.402H81.8802L81.6902 20.162C81.2342 21.948 80.7782 22.594 77.2822 22.594H75.9522C73.4062 22.594 72.9502 21.986 72.9502 18.186V12.714C72.9502 8.914 73.4062 8.306 75.9522 8.306V7.546H67.2502V8.306C69.7962 8.306 70.2522 8.914 70.2522 12.714ZM87.0998 12.714V18.794C87.0998 22.594 86.6438 23.24 84.0978 23.24V24H91.5078V23.24C88.9618 23.24 88.5058 22.594 88.5058 18.794V11.346L99.5638 24.608H100.286V12.714C100.286 8.914 100.742 8.306 103.288 8.306V7.546H95.8778V8.306C98.4238 8.306 98.8798 8.914 98.8798 12.714V19.554L88.7718 7.546H84.0978V8.306C86.6438 8.306 87.0998 8.914 87.0998 12.714ZM115.596 22.594H115.14C112.594 22.594 112.138 21.986 112.138 18.186V15.982H112.366C116.166 15.982 116.47 16.476 116.47 18.984H117.23V11.574H116.47C116.47 14.12 116.166 14.576 112.366 14.576H112.138V8.914H114.684C118.142 8.914 118.636 9.598 119.054 11.346L119.244 12.106H120.042L119.738 7.546H114.836H106.438V8.306C108.984 8.306 109.44 8.914 109.44 12.714V18.794C109.44 22.594 108.984 23.24 106.438 23.24V24H120.65L120.954 19.402H120.194L120.004 20.162C119.548 21.948 119.054 22.594 115.596 22.594ZM136.329 19.44C136.329 17.958 135.493 16.248 133.327 15.146L130.781 13.816C128.463 12.6 127.475 11.878 127.475 10.548C127.475 9.142 128.729 8.344 130.211 8.344C132.947 8.344 133.973 11.042 134.201 13.322H134.961V6.9H134.239C134.125 7.508 133.859 7.85 133.631 8.078C132.833 7.508 131.617 6.938 130.059 6.938C127.285 6.938 125.309 8.876 125.309 11.27C125.309 13.398 126.601 14.956 128.425 15.906L131.009 17.236C133.061 18.262 134.125 19.288 134.125 20.618C134.125 22.252 132.833 23.164 131.199 23.164C128.349 23.164 126.297 21.34 125.993 18.11H125.233V24.646H125.917C126.031 24 126.411 23.506 126.639 23.24C127.323 23.696 128.919 24.646 130.895 24.646C133.859 24.646 136.329 22.556 136.329 19.44ZM152.063 19.44C152.063 17.958 151.227 16.248 149.061 15.146L146.515 13.816C144.197 12.6 143.209 11.878 143.209 10.548C143.209 9.142 144.463 8.344 145.945 8.344C148.681 8.344 149.707 11.042 149.935 13.322H150.695V6.9H149.973C149.859 7.508 149.593 7.85 149.365 8.078C148.567 7.508 147.351 6.938 145.793 6.938C143.019 6.938 141.043 8.876 141.043 11.27C141.043 13.398 142.335 14.956 144.159 15.906L146.743 17.236C148.795 18.262 149.859 19.288 149.859 20.618C149.859 22.252 148.567 23.164 146.933 23.164C144.083 23.164 142.031 21.34 141.727 18.11H140.967V24.646H141.651C141.765 24 142.145 23.506 142.373 23.24C143.057 23.696 144.653 24.646 146.629 24.646C149.593 24.646 152.063 22.556 152.063 19.44ZM175.367 17.806C175.367 21.226 172.403 23.012 169.097 23.012C162.067 23.012 160.091 17.312 160.091 12.6C160.091 7.888 162.295 2.036 168.375 2.036C172.631 2.036 175.595 5.038 176.621 9.978H177.381V1.618H176.621C176.431 2.568 175.823 3.404 175.329 3.784C173.391 1.732 170.921 0.553998 168.261 0.553998C161.839 0.553998 156.595 5.988 156.595 12.6C156.595 19.212 161.839 24.646 168.261 24.646C172.213 24.646 173.923 22.67 178.141 22.67V19.782C178.141 15.982 178.597 15.336 181.751 15.336V14.576H171.795V15.336C174.417 15.336 175.367 16.172 175.367 17.806ZM201.99 15.754C201.99 10.928 197.81 6.9 192.718 6.9C187.626 6.9 183.446 10.928 183.446 15.754C183.446 20.656 187.626 24.646 192.718 24.646C197.81 24.646 201.99 20.656 201.99 15.754ZM198.874 15.754C198.874 19.06 197.202 23.164 192.718 23.164C188.196 23.164 186.562 19.06 186.562 15.754C186.562 12.486 188.196 8.344 192.718 8.344C197.202 8.344 198.874 12.486 198.874 15.754ZM224.515 15.754C224.515 10.928 220.335 6.9 215.243 6.9C210.151 6.9 205.971 10.928 205.971 15.754C205.971 20.656 210.151 24.646 215.243 24.646C220.335 24.646 224.515 20.656 224.515 15.754ZM221.399 15.754C221.399 19.06 219.727 23.164 215.243 23.164C210.721 23.164 209.087 19.06 209.087 15.754C209.087 12.486 210.721 8.344 215.243 8.344C219.727 8.344 221.399 12.486 221.399 15.754ZM242.405 15.754C242.405 18.794 241.417 22.594 236.401 22.594H236.097C234.197 22.594 233.931 22.176 233.931 19.706V8.914C234.577 8.914 236.173 8.914 236.401 8.914C241.417 8.914 242.405 12.752 242.405 15.754ZM228.231 24H236.287C242.747 24 245.559 20.276 245.559 15.754C245.559 11.27 242.747 7.546 236.287 7.546H228.231V8.306C230.777 8.306 231.233 8.914 231.233 12.714V18.794C231.233 22.594 230.777 23.24 228.231 23.24V24ZM261.276 19.44C261.276 17.958 260.44 16.248 258.274 15.146L255.728 13.816C253.41 12.6 252.422 11.878 252.422 10.548C252.422 9.142 253.676 8.344 255.158 8.344C257.894 8.344 258.92 11.042 259.148 13.322H259.908V6.9H259.186C259.072 7.508 258.806 7.85 258.578 8.078C257.78 7.508 256.564 6.938 255.006 6.938C252.232 6.938 250.256 8.876 250.256 11.27C250.256 13.398 251.548 14.956 253.372 15.906L255.956 17.236C258.008 18.262 259.072 19.288 259.072 20.618C259.072 22.252 257.78 23.164 256.146 23.164C253.296 23.164 251.244 21.34 250.94 18.11H250.18V24.646H250.864C250.978 24 251.358 23.506 251.586 23.24C252.27 23.696 253.866 24.646 255.842 24.646C258.806 24.646 261.276 22.556 261.276 19.44ZM268.332 0.413198C265.721 0.413198 263.62 2.5144 263.62 5.1256C263.62 7.7368 265.721 9.838 268.332 9.838C270.943 9.838 273.065 7.7368 273.065 5.1256C273.065 2.5144 270.943 0.413198 268.332 0.413198ZM269.454 3.9832C269.454 4.534 269.148 5.0032 268.454 5.0032H267.802V2.9428H268.454C269.148 2.9428 269.454 3.4324 269.454 3.9832ZM271.555 7.6348V7.39C270.902 7.3084 270.454 6.9208 269.801 6.2476L269.087 5.4724C270.066 5.2888 270.596 4.6768 270.596 3.9832C270.596 3.1264 269.842 2.4736 268.475 2.4736H265.721V2.7592C266.578 2.7592 266.741 2.9428 266.741 4.0648V6.0844C266.741 7.186 266.578 7.39 265.721 7.39V7.696H268.658V7.39C267.965 7.39 267.802 7.186 267.802 6.0844V5.4928H268.067L269.801 7.696H271.514C270.76 8.614 269.597 9.226 268.312 9.226C266.047 9.226 264.211 7.39 264.211 5.1256C264.211 2.8612 266.047 1.0252 268.312 1.0252C270.596 1.0252 272.412 2.8612 272.412 5.1256C272.412 6.0844 272.086 6.9412 271.555 7.6348Z" fill="#192509"/>
</svg>
